<?xml version="1.0" standalone="no"?>
<!DOCTYPE svg PUBLIC "-//W3C//DTD SVG 20010904//EN"
 "http://www.w3.org/TR/2001/REC-SVG-20010904/DTD/svg10.dtd">
<svg version="1.0" xmlns="http://www.w3.org/2000/svg"
 width="256.000000pt" height="256.000000pt" viewBox="0 0 256.000000 256.000000"
 preserveAspectRatio="xMidYMid meet">
<metadata>
Created by potrace 1.14, written by Peter Selinger 2001-2017
</metadata>
<g transform="translate(0.000000,256.000000) scale(0.100000,-0.100000)"
fill="#000000" stroke="none">
<path d="M561 2041 c-188 -188 -341 -345 -341 -349 0 -4 49 -57 110 -117 l109
-109 153 152 153 151 0 -785 c0 -432 3 -791 7 -797 9 -14 298 -13 307 1 3 6 6
358 5 784 0 425 2 777 4 782 3 4 71 -58 153 -140 l148 -148 111 109 c60 60
110 112 110 115 0 6 -622 634 -667 673 -21 19 -24 16 -362 -322z"/>
<path d="M1613 1448 c-57 -57 -103 -108 -103 -113 0 -5 102 -112 227 -237
l228 -228 -228 -228 c-125 -125 -227 -232 -227 -238 0 -7 48 -60 106 -118 92
-92 109 -105 123 -94 35 28 671 669 671 677 0 12 -667 675 -683 679 -7 1 -58
-44 -114 -100z"/>
</g>
</svg>
