<svg width="40" height="40" viewBox="0 0 40 40" fill="none" xmlns="http://www.w3.org/2000/svg">
<path d="M23.2577 18.8087C23.1293 18.9366 23.1293 19.144 23.2577 19.2719L30.4599 26.4485C30.5883 26.5764 30.5883 26.7838 30.4599 26.9117L23.2595 34.0865C23.1311 34.2144 23.1311 34.4218 23.2595 34.5497L26.5138 37.7923C26.6422 37.9203 26.8503 37.9203 26.9787 37.7923L34.5824 30.2157C34.5961 30.2021 34.6112 30.1901 34.626 30.1777C34.6334 30.1715 34.6406 30.1649 34.6476 30.158L37.9019 26.9153C37.9504 26.8669 37.9806 26.8072 37.9924 26.7447C38.0155 26.6394 37.9859 26.5249 37.9037 26.443L34.6495 23.2004C34.6409 23.1919 34.632 23.1839 34.6228 23.1765C34.6042 23.1617 34.5852 23.1473 34.5684 23.1305L26.9768 15.566C26.8485 15.4381 26.6403 15.4381 26.5119 15.566L23.2577 18.8087Z" fill="black"/>
<path d="M15.8777 11.9062V37.6724C15.8777 37.8533 15.7306 38 15.549 38H10.9468C10.7652 38 10.618 37.8533 10.618 37.6724V11.904L5.81563 16.6893C5.68725 16.8172 5.47911 16.8172 5.35073 16.6893L2.09628 13.4465C1.96791 13.3186 1.96791 13.1112 2.09628 12.9832L9.69784 5.40878C9.71214 5.38366 9.73003 5.36001 9.75153 5.3386L13.0058 2.09594C13.0786 2.0234 13.177 1.99199 13.2721 2.00173C13.35 2.00603 13.4267 2.03784 13.4862 2.09716L16.7407 5.34001C16.7605 5.35976 16.7772 5.3814 16.7909 5.40435L24.3957 12.982C24.5241 13.1099 24.5241 13.3173 24.3957 13.4452L21.1415 16.6879C21.0131 16.8158 20.8049 16.8158 20.6766 16.6879L15.8777 11.9062Z" fill="black"/>
</svg>
